<svg xmlns="http://www.w3.org/2000/svg" xmlns:xlink="http://www.w3.org/1999/xlink" width="375" viewBox="0 0 375 375" height="375" version="1.0"><defs><clipPath id="a"><path d="M 139.335938 147 L 235.335938 147 L 235.335938 232.109375 L 139.335938 232.109375 Z M 139.335938 147"/></clipPath><clipPath id="b"><path d="M 233.171875 149.136719 C 233.171875 149.136719 227.839844 143.554688 214.535156 151.566406 C 201.226562 159.574219 200.128906 170.617188 200.058594 174.226562 C 199.992188 177.835938 198.546875 182.15625 190.925781 188.859375 L 187.433594 192.171875 C 184.824219 189.78125 182.847656 187.949219 181.898438 187.035156 C 181.238281 186.425781 180.652344 185.75 180.140625 185.007812 C 179.628906 184.265625 179.207031 183.472656 178.871094 182.636719 C 178.539062 181.800781 178.300781 180.9375 178.15625 180.046875 C 178.015625 179.15625 177.972656 178.261719 178.03125 177.359375 C 178.03125 177.171875 179.25 172.472656 174.207031 167.902344 L 173.484375 167.238281 L 151.851562 147.589844 L 151.765625 147.511719 C 151.515625 147.324219 151.234375 147.25 150.925781 147.277344 C 150.617188 147.308594 150.359375 147.441406 150.152344 147.671875 C 149.941406 147.902344 149.839844 148.171875 149.839844 148.484375 C 149.839844 148.792969 149.945312 149.066406 150.152344 149.296875 L 168.847656 168.03125 C 168.960938 168.144531 169.042969 168.277344 169.105469 168.421875 C 169.164062 168.570312 169.195312 168.726562 169.195312 168.882812 C 169.195312 169.042969 169.164062 169.195312 169.105469 169.34375 C 169.042969 169.492188 168.960938 169.621094 168.847656 169.738281 C 168.734375 169.851562 168.605469 169.9375 168.457031 170 C 168.3125 170.0625 168.15625 170.09375 167.996094 170.09375 C 167.839844 170.09375 167.683594 170.0625 167.539062 170 C 167.390625 169.9375 167.261719 169.851562 167.148438 169.738281 L 148.511719 151 C 148.398438 150.890625 148.265625 150.804688 148.121094 150.742188 C 147.972656 150.683594 147.820312 150.652344 147.660156 150.652344 C 147.503906 150.652344 147.347656 150.683594 147.203125 150.742188 C 147.054688 150.804688 146.925781 150.890625 146.8125 151 C 146.699219 151.113281 146.609375 151.242188 146.546875 151.390625 C 146.488281 151.539062 146.457031 151.691406 146.457031 151.851562 C 146.457031 152.011719 146.488281 152.167969 146.546875 152.316406 C 146.609375 152.460938 146.699219 152.59375 146.8125 152.707031 L 165.496094 171.441406 C 165.699219 171.683594 165.796875 171.960938 165.785156 172.273438 C 165.773438 172.589844 165.65625 172.859375 165.433594 173.082031 C 165.210938 173.304688 164.941406 173.421875 164.625 173.433594 C 164.3125 173.449219 164.035156 173.351562 163.796875 173.148438 L 145.0625 154.402344 C 144.949219 154.289062 144.820312 154.199219 144.671875 154.140625 C 144.527344 154.078125 144.375 154.046875 144.214844 154.046875 C 144.054688 154.046875 143.902344 154.074219 143.753906 154.136719 C 143.609375 154.195312 143.476562 154.285156 143.367188 154.394531 C 143.253906 154.507812 143.164062 154.636719 143.105469 154.785156 C 143.042969 154.933594 143.011719 155.085938 143.011719 155.246094 C 143.011719 155.402344 143.042969 155.558594 143.101562 155.703125 C 143.164062 155.851562 143.25 155.984375 143.359375 156.097656 L 162.046875 174.84375 C 162.160156 174.953125 162.246094 175.085938 162.308594 175.234375 C 162.371094 175.378906 162.402344 175.535156 162.402344 175.695312 C 162.402344 175.855469 162.371094 176.007812 162.308594 176.15625 C 162.246094 176.304688 162.160156 176.433594 162.046875 176.546875 C 161.933594 176.660156 161.800781 176.746094 161.65625 176.804688 C 161.507812 176.863281 161.355469 176.894531 161.195312 176.894531 C 161.035156 176.894531 160.882812 176.863281 160.738281 176.804688 C 160.589844 176.746094 160.460938 176.660156 160.34375 176.546875 L 141.660156 157.8125 C 141.429688 157.601562 141.160156 157.496094 140.851562 157.496094 C 140.539062 157.496094 140.269531 157.601562 140.039062 157.808594 C 139.808594 158.019531 139.679688 158.277344 139.648438 158.585938 C 139.617188 158.898438 139.695312 159.175781 139.878906 159.425781 L 139.960938 159.515625 L 159.496094 181.167969 L 160.148438 181.890625 C 164.707031 186.945312 169.390625 185.777344 169.578125 185.726562 C 170.476562 185.671875 171.371094 185.714844 172.257812 185.859375 C 173.144531 186 174.007812 186.242188 174.84375 186.578125 C 175.675781 186.914062 176.464844 187.335938 177.203125 187.851562 C 177.945312 188.363281 178.621094 188.949219 179.230469 189.613281 C 180.128906 190.605469 181.917969 192.496094 184.261719 195.054688 C 177.09375 201.746094 164.960938 212.898438 152.199219 223.644531 L 151.960938 223.84375 C 151.902344 223.890625 151.84375 223.945312 151.792969 224.003906 C 151.574219 224.222656 151.375 224.460938 151.203125 224.71875 C 151.03125 224.976562 150.882812 225.25 150.761719 225.535156 C 150.644531 225.824219 150.550781 226.121094 150.492188 226.425781 C 150.429688 226.730469 150.398438 227.039062 150.394531 227.351562 C 150.394531 227.660156 150.425781 227.96875 150.484375 228.277344 C 150.542969 228.582031 150.632812 228.878906 150.75 229.167969 C 150.867188 229.453125 151.011719 229.726562 151.183594 229.988281 C 151.355469 230.246094 151.550781 230.488281 151.769531 230.707031 C 151.988281 230.929688 152.226562 231.128906 152.484375 231.300781 C 152.742188 231.476562 153.011719 231.621094 153.300781 231.742188 C 153.585938 231.863281 153.882812 231.953125 154.1875 232.015625 C 154.488281 232.078125 154.796875 232.109375 155.109375 232.109375 C 155.417969 232.109375 155.726562 232.082031 156.03125 232.023438 C 156.335938 231.960938 156.632812 231.875 156.917969 231.753906 C 157.207031 231.636719 157.480469 231.492188 157.738281 231.320312 C 157.996094 231.148438 158.238281 230.953125 158.457031 230.734375 L 158.554688 230.625 L 158.871094 230.257812 C 169.53125 217.558594 180.523438 205.472656 187.207031 198.308594 C 196.222656 208.21875 209.945312 223.46875 216.203125 230.425781 L 216.421875 230.664062 L 216.472656 230.722656 L 216.472656 230.773438 C 216.679688 230.984375 216.90625 231.171875 217.152344 231.335938 C 217.398438 231.5 217.65625 231.640625 217.929688 231.753906 C 218.203125 231.867188 218.484375 231.953125 218.773438 232.011719 C 219.0625 232.070312 219.355469 232.101562 219.648438 232.101562 C 219.945312 232.101562 220.238281 232.074219 220.527344 232.015625 C 220.816406 231.960938 221.097656 231.875 221.371094 231.761719 C 221.644531 231.648438 221.90625 231.511719 222.152344 231.347656 C 222.398438 231.183594 222.625 230.996094 222.835938 230.789062 C 223.042969 230.578125 223.230469 230.351562 223.394531 230.105469 C 223.5625 229.859375 223.699219 229.601562 223.816406 229.328125 C 223.929688 229.054688 224.015625 228.773438 224.074219 228.484375 C 224.132812 228.191406 224.164062 227.898438 224.164062 227.605469 C 224.164062 227.308594 224.136719 227.015625 224.082031 226.722656 C 224.023438 226.433594 223.941406 226.148438 223.828125 225.875 C 223.714844 225.601562 223.578125 225.339844 223.414062 225.09375 C 223.253906 224.847656 223.066406 224.617188 222.859375 224.410156 L 222.484375 224.070312 C 215.503906 217.757812 200.246094 203.949219 190.371094 194.917969 C 192.347656 192.765625 193.554688 191.546875 193.554688 191.546875 C 200.21875 183.902344 204.578125 182.445312 208.148438 182.386719 C 211.714844 182.328125 222.761719 181.167969 230.75 167.824219 C 238.738281 154.480469 233.171875 149.136719 233.171875 149.136719 Z M 233.171875 149.136719"/></clipPath><clipPath id="d"><path d="M 185 97 L 219 97 L 219 145 L 185 145 Z M 185 97"/></clipPath><clipPath id="e"><path d="M 218.300781 125.917969 C 214.476562 146.46875 193.988281 144.300781 193.988281 144.300781 C 203.875 131.601562 208.058594 116.492188 208.207031 115.957031 C 200.496094 133.007812 189.519531 141.96875 189.519531 141.96875 C 185.347656 136.289062 181.613281 121.152344 193.535156 114.726562 C 205.457031 108.304688 206.230469 97.199219 206.230469 97.199219 C 206.230469 97.199219 222.136719 105.371094 218.300781 125.917969 Z M 218.300781 125.917969"/></clipPath><clipPath id="g"><path d="M 151 91 L 181 91 L 181 134 L 151 134 Z M 151 91"/></clipPath><clipPath id="h"><path d="M 151.734375 116.480469 C 154.1875 134.742188 172.359375 133.761719 172.359375 133.761719 C 167.058594 125.90625 163.300781 117.371094 161.078125 108.15625 C 167.097656 123.519531 176.351562 131.945312 176.351562 131.945312 C 180.308594 127.128906 184.261719 113.953125 174.039062 107.777344 C 163.816406 101.601562 163.648438 91.738281 163.648438 91.738281 C 163.648438 91.738281 149.28125 98.210938 151.734375 116.480469 Z M 151.734375 116.480469"/></clipPath><clipPath id="j"><path d="M 177 73.109375 L 201 73.109375 L 201 109 L 177 109 Z M 177 73.109375"/></clipPath><clipPath id="k"><path d="M 200.089844 90.378906 C 202.066406 105.597656 187.238281 108.78125 187.238281 108.78125 C 189.78125 101.308594 190.949219 93.628906 190.738281 85.742188 C 189.234375 99.402344 183.617188 108.164062 183.617188 108.164062 C 179.417969 105.191406 173.367188 95.4375 180.226562 88.238281 C 187.089844 81.042969 185.09375 73.109375 185.09375 73.109375 C 185.09375 73.109375 198.082031 75.171875 200.089844 90.378906 Z M 200.089844 90.378906"/></clipPath><linearGradient x1="48.27" gradientTransform="matrix(.98866 0 0 .99133 139.614 73.111)" xmlns:xlink="http://www.w3.org/1999/xlink" y1="71.06" x2="48.27" gradientUnits="userSpaceOnUse" y2="160.39" xlink:type="simple" xlink:actuate="onLoad" id="c" xlink:show="other"><stop stop-color="#2A3B33" offset="0"/><stop stop-color="#2A3B33" offset=".063"/><stop stop-color="#2A3B33" offset=".094"/><stop stop-color="#2A3B33" offset=".102"/><stop stop-color="#2A3B34" offset=".105"/><stop stop-color="#2A3C35" offset=".109"/><stop stop-color="#2A3C35" offset=".113"/><stop stop-color="#2A3D36" offset=".117"/><stop stop-color="#2A3D37" offset=".121"/><stop stop-color="#2A3E38" offset=".125"/><stop stop-color="#2A3E39" offset=".129"/><stop stop-color="#2B3F39" offset=".133"/><stop stop-color="#2B3F3A" offset=".137"/><stop stop-color="#2B403B" offset=".141"/><stop stop-color="#2B403C" offset=".145"/><stop stop-color="#2B413D" offset=".148"/><stop stop-color="#2B413D" offset=".152"/><stop stop-color="#2B423E" offset=".156"/><stop stop-color="#2B423F" offset=".16"/><stop stop-color="#2B4340" offset=".164"/><stop stop-color="#2B4341" offset=".168"/><stop stop-color="#2B4441" offset=".172"/><stop stop-color="#2B4442" offset=".176"/><stop stop-color="#2B4543" offset=".18"/><stop stop-color="#2B4544" offset=".184"/><stop stop-color="#2B4645" offset=".188"/><stop stop-color="#2B4645" offset=".191"/><stop stop-color="#2B4746" offset=".195"/><stop stop-color="#2B4747" offset=".199"/><stop stop-color="#2C4848" offset=".203"/><stop stop-color="#2C4849" offset=".207"/><stop stop-color="#2C4849" offset=".211"/><stop stop-color="#2C494A" offset=".215"/><stop stop-color="#2C494B" offset=".219"/><stop stop-color="#2C4A4C" offset=".223"/><stop stop-color="#2C4A4D" offset=".227"/><stop stop-color="#2C4B4D" offset=".23"/><stop stop-color="#2C4B4E" offset=".234"/><stop stop-color="#2C4C4F" offset=".238"/><stop stop-color="#2C4C50" offset=".242"/><stop stop-color="#2C4D51" offset=".246"/><stop stop-color="#2C4D51" offset=".25"/><stop stop-color="#2C4E52" offset=".254"/><stop stop-color="#2C4E53" offset=".258"/><stop stop-color="#2C4F54" offset=".262"/><stop stop-color="#2C4F55" offset=".266"/><stop stop-color="#2C5055" offset=".27"/><stop stop-color="#2C5056" offset=".273"/><stop stop-color="#2D5157" offset=".277"/><stop stop-color="#2D5158" offset=".281"/><stop stop-color="#2D5259" offset=".285"/><stop stop-color="#2D5259" offset=".289"/><stop stop-color="#2D535A" offset=".293"/><stop stop-color="#2D535B" offset=".297"/><stop stop-color="#2D545C" offset=".301"/><stop stop-color="#2D545D" offset=".305"/><stop stop-color="#2D555D" offset=".309"/><stop stop-color="#2D555E" offset=".313"/><stop stop-color="#2D565F" offset=".316"/><stop stop-color="#2D5660" offset=".32"/><stop stop-color="#2D5661" offset=".324"/><stop stop-color="#2D5761" offset=".328"/><stop stop-color="#2D5762" offset=".332"/><stop stop-color="#2D5863" offset=".336"/><stop stop-color="#2D5864" offset=".34"/><stop stop-color="#2D5965" offset=".344"/><stop stop-color="#2E5965" offset=".348"/><stop stop-color="#2E5A66" offset=".352"/><stop stop-color="#2E5A67" offset=".355"/><stop stop-color="#2E5B68" offset=".359"/><stop stop-color="#2E5B69" offset=".363"/><stop stop-color="#2E5C69" offset=".367"/><stop stop-color="#2E5C6A" offset=".371"/><stop stop-color="#2E5D6B" offset=".375"/><stop stop-color="#2E5D6C" offset=".379"/><stop stop-color="#2E5E6D" offset=".383"/><stop stop-color="#2E5E6D" offset=".387"/><stop stop-color="#2E5F6E" offset=".391"/><stop stop-color="#2E5F6F" offset=".395"/><stop stop-color="#2E6070" offset=".398"/><stop stop-color="#2E6071" offset=".402"/><stop stop-color="#2E6171" offset=".406"/><stop stop-color="#2E6172" offset=".41"/><stop stop-color="#2E6273" offset=".414"/><stop stop-color="#2F6274" offset=".418"/><stop stop-color="#2F6375" offset=".422"/><stop stop-color="#2F6375" offset=".426"/><stop stop-color="#2F6476" offset=".43"/><stop stop-color="#2F6477" offset=".434"/><stop stop-color="#2F6478" offset=".438"/><stop stop-color="#2F6579" offset=".441"/><stop stop-color="#2F6579" offset=".445"/><stop stop-color="#2F667A" offset=".449"/><stop stop-color="#2F667B" offset=".453"/><stop stop-color="#2F677C" offset=".457"/><stop stop-color="#2F677D" offset=".461"/><stop stop-color="#2F687D" offset=".465"/><stop stop-color="#2F687E" offset=".469"/><stop stop-color="#2F697F" offset=".473"/><stop stop-color="#2F6980" offset=".477"/><stop stop-color="#2F6A81" offset=".48"/><stop stop-color="#2F6A81" offset=".484"/><stop stop-color="#306B82" offset=".488"/><stop stop-color="#306B83" offset=".492"/><stop stop-color="#306C84" offset=".496"/><stop stop-color="#306C85" offset=".5"/><stop stop-color="#306D85" offset=".504"/><stop stop-color="#306D86" offset=".508"/><stop stop-color="#306E87" offset=".512"/><stop stop-color="#306E88" offset=".516"/><stop stop-color="#306F89" offset=".52"/><stop stop-color="#306F89" offset=".523"/><stop stop-color="#30708A" offset=".527"/><stop stop-color="#30708B" offset=".531"/><stop stop-color="#30718C" offset=".535"/><stop stop-color="#30718D" offset=".539"/><stop stop-color="#30728D" offset=".543"/><stop stop-color="#30728E" offset=".547"/><stop stop-color="#30738F" offset=".551"/><stop stop-color="#307390" offset=".555"/><stop stop-color="#317391" offset=".559"/><stop stop-color="#317491" offset=".563"/><stop stop-color="#317492" offset=".566"/><stop stop-color="#317593" offset=".57"/><stop stop-color="#317594" offset=".574"/><stop stop-color="#317695" offset=".578"/><stop stop-color="#317695" offset=".582"/><stop stop-color="#317796" offset=".586"/><stop stop-color="#317797" offset=".59"/><stop stop-color="#317898" offset=".594"/><stop stop-color="#317899" offset=".598"/><stop stop-color="#317999" offset=".602"/><stop stop-color="#31799A" offset=".605"/><stop stop-color="#317A9B" offset=".609"/><stop stop-color="#317A9C" offset=".613"/><stop stop-color="#317B9D" offset=".617"/><stop stop-color="#317B9D" offset=".621"/><stop stop-color="#317C9E" offset=".625"/><stop stop-color="#327C9F" offset=".629"/><stop stop-color="#327DA0" offset=".633"/><stop stop-color="#327DA1" offset=".637"/><stop stop-color="#327EA1" offset=".641"/><stop stop-color="#327EA2" offset=".645"/><stop stop-color="#327FA3" offset=".648"/><stop stop-color="#327FA4" offset=".652"/><stop stop-color="#3280A5" offset=".656"/><stop stop-color="#3280A5" offset=".66"/><stop stop-color="#3281A6" offset=".664"/><stop stop-color="#3281A7" offset=".668"/><stop stop-color="#3281A8" offset=".672"/><stop stop-color="#3282A9" offset=".676"/><stop stop-color="#3282A9" offset=".68"/><stop stop-color="#3283AA" offset=".684"/><stop stop-color="#3283AB" offset=".688"/><stop stop-color="#3284AC" offset=".691"/><stop stop-color="#3284AD" offset=".695"/><stop stop-color="#3285AD" offset=".699"/><stop stop-color="#3385AE" offset=".703"/><stop stop-color="#3386AF" offset=".707"/><stop stop-color="#3386B0" offset=".711"/><stop stop-color="#3387B1" offset=".715"/><stop stop-color="#3387B2" offset=".719"/><stop stop-color="#3388B2" offset=".723"/><stop stop-color="#3388B3" offset=".727"/><stop stop-color="#3389B4" offset=".73"/><stop stop-color="#3389B5" offset=".734"/><stop stop-color="#338AB6" offset=".738"/><stop stop-color="#338AB6" offset=".742"/><stop stop-color="#338BB7" offset=".746"/><stop stop-color="#338BB8" offset=".75"/><stop stop-color="#338CB9" offset=".754"/><stop stop-color="#338CBA" offset=".758"/><stop stop-color="#338DBA" offset=".762"/><stop stop-color="#338DBB" offset=".766"/><stop stop-color="#338EBC" offset=".77"/><stop stop-color="#348EBD" offset=".773"/><stop stop-color="#348FBE" offset=".777"/><stop stop-color="#348FBE" offset=".781"/><stop stop-color="#348FBF" offset=".785"/><stop stop-color="#3490C0" offset=".789"/><stop stop-color="#3490C1" offset=".793"/><stop stop-color="#3491C2" offset=".797"/><stop stop-color="#3491C2" offset=".801"/><stop stop-color="#3492C3" offset=".805"/><stop stop-color="#3492C4" offset=".809"/><stop stop-color="#3493C5" offset=".813"/><stop stop-color="#3493C6" offset=".816"/><stop stop-color="#3494C6" offset=".82"/><stop stop-color="#3494C7" offset=".824"/><stop stop-color="#3495C8" offset=".828"/><stop stop-color="#3495C9" offset=".832"/><stop stop-color="#3496CA" offset=".836"/><stop stop-color="#3496CA" offset=".84"/><stop stop-color="#3597CB" offset=".844"/><stop stop-color="#3597CC" offset=".848"/><stop stop-color="#3598CD" offset=".852"/><stop stop-color="#3598CE" offset=".855"/><stop stop-color="#3599CE" offset=".859"/><stop stop-color="#3599CF" offset=".863"/><stop stop-color="#359AD0" offset=".867"/><stop stop-color="#359AD1" offset=".871"/><stop stop-color="#359BD2" offset=".875"/><stop stop-color="#359BD2" offset=".879"/><stop stop-color="#359CD3" offset=".883"/><stop stop-color="#359CD4" offset=".887"/><stop stop-color="#359DD5" offset=".891"/><stop stop-color="#359DD6" offset=".895"/><stop stop-color="#359ED6" offset=".898"/><stop stop-color="#359ED7" offset=".902"/><stop stop-color="#359ED8" offset=".906"/><stop stop-color="#359FD9" offset=".91"/><stop stop-color="#369FDA" offset=".914"/><stop stop-color="#36A0DA" offset=".918"/><stop stop-color="#36A0DB" offset=".922"/><stop stop-color="#36A1DC" offset=".926"/><stop stop-color="#36A1DD" offset=".93"/><stop stop-color="#36A2DE" offset=".934"/><stop stop-color="#36A2DE" offset=".938"/><stop stop-color="#36A3DF" offset=".941"/><stop stop-color="#36A3E0" offset=".945"/><stop stop-color="#36A4E1" offset=".949"/><stop stop-color="#36A4E2" offset=".953"/><stop stop-color="#36A5E2" offset=".957"/><stop stop-color="#36A5E3" offset=".961"/><stop stop-color="#36A6E4" offset=".965"/><stop stop-color="#36A6E5" offset=".969"/><stop stop-color="#36A7E6" offset=".973"/><stop stop-color="#36A7E6" offset=".977"/><stop stop-color="#36A8E7" offset=".98"/><stop stop-color="#37A8E8" offset=".984"/><stop stop-color="#37A9E9" offset=".988"/><stop stop-color="#37A9EA" offset=".992"/><stop stop-color="#37AAEA" offset=".996"/><stop stop-color="#37AAEB" offset="1"/></linearGradient><linearGradient x1="71.547" gradientTransform="matrix(.98866 0 0 .99133 139.614 73.111)" xmlns:xlink="http://www.w3.org/1999/xlink" y1="21.159" x2="56.642" gradientUnits="userSpaceOnUse" y2="77.731" xlink:type="simple" xlink:actuate="onLoad" id="f" xlink:show="other"><stop stop-color="#FF5757" offset="0"/><stop stop-color="#FF5757" offset=".125"/><stop stop-color="#FF5757" offset=".156"/><stop stop-color="#FF5757" offset=".164"/><stop stop-color="#FF5857" offset=".172"/><stop stop-color="#FF5857" offset=".179"/><stop stop-color="#FF5957" offset=".18"/><stop stop-color="#FF5957" offset=".188"/><stop stop-color="#FF5A57" offset=".195"/><stop stop-color="#FF5A56" offset=".203"/><stop stop-color="#FF5B56" offset=".211"/><stop stop-color="#FF5B56" offset=".219"/><stop stop-color="#FF5C56" offset=".227"/><stop stop-color="#FF5C56" offset=".234"/><stop stop-color="#FF5D56" offset=".242"/><stop stop-color="#FF5D56" offset=".25"/><stop stop-color="#FF5E56" offset=".258"/><stop stop-color="#FF5E56" offset=".266"/><stop stop-color="#FF5F56" offset=".273"/><stop stop-color="#FF5F55" offset=".281"/><stop stop-color="#FF6055" offset=".289"/><stop stop-color="#FF6155" offset=".297"/><stop stop-color="#FF6155" offset=".305"/><stop stop-color="#FF6255" offset=".313"/><stop stop-color="#FF6255" offset=".32"/><stop stop-color="#FF6355" offset=".328"/><stop stop-color="#FF6355" offset=".336"/><stop stop-color="#FF6455" offset=".344"/><stop stop-color="#FF6455" offset=".352"/><stop stop-color="#FF6555" offset=".359"/><stop stop-color="#FF6554" offset=".367"/><stop stop-color="#FF6654" offset=".375"/><stop stop-color="#FF6654" offset=".383"/><stop stop-color="#FF6754" offset=".391"/><stop stop-color="#FF6854" offset=".398"/><stop stop-color="#FF6854" offset=".406"/><stop stop-color="#FF6954" offset=".414"/><stop stop-color="#FF6954" offset=".422"/><stop stop-color="#FF6A54" offset=".43"/><stop stop-color="#FF6A54" offset=".438"/><stop stop-color="#FF6B54" offset=".445"/><stop stop-color="#FF6B53" offset=".453"/><stop stop-color="#FF6C53" offset=".461"/><stop stop-color="#FF6C53" offset=".469"/><stop stop-color="#FF6D53" offset=".477"/><stop stop-color="#FF6D53" offset=".484"/><stop stop-color="#FF6E53" offset=".492"/><stop stop-color="#FF6F53" offset=".5"/><stop stop-color="#FF6F53" offset=".508"/><stop stop-color="#FF7053" offset=".516"/><stop stop-color="#FF7053" offset=".523"/><stop stop-color="#FF7153" offset=".531"/><stop stop-color="#FF7152" offset=".539"/><stop stop-color="#FF7252" offset=".547"/><stop stop-color="#FF7252" offset=".555"/><stop stop-color="#FF7352" offset=".563"/><stop stop-color="#FF7352" offset=".57"/><stop stop-color="#FF7452" offset=".578"/><stop stop-color="#FF7452" offset=".586"/><stop stop-color="#FF7552" offset=".594"/><stop stop-color="#FF7552" offset=".602"/><stop stop-color="#FF7652" offset=".609"/><stop stop-color="#FF7752" offset=".617"/><stop stop-color="#FF7751" offset=".625"/><stop stop-color="#FF7851" offset=".633"/><stop stop-color="#FF7851" offset=".641"/><stop stop-color="#FF7951" offset=".648"/><stop stop-color="#FF7951" offset=".656"/><stop stop-color="#FF7A51" offset=".664"/><stop stop-color="#FF7A51" offset=".672"/><stop stop-color="#FF7B51" offset=".68"/><stop stop-color="#FF7B51" offset=".688"/><stop stop-color="#FF7C51" offset=".695"/><stop stop-color="#FF7C51" offset=".703"/><stop stop-color="#FF7D50" offset=".711"/><stop stop-color="#FF7E50" offset=".719"/><stop stop-color="#FF7E50" offset=".727"/><stop stop-color="#FF7F50" offset=".734"/><stop stop-color="#FF7F50" offset=".742"/><stop stop-color="#FF8050" offset=".75"/><stop stop-color="#FF8050" offset=".758"/><stop stop-color="#FF8150" offset=".766"/><stop stop-color="#FF8150" offset=".773"/><stop stop-color="#FF8250" offset=".781"/><stop stop-color="#FF8250" offset=".789"/><stop stop-color="#FF834F" offset=".797"/><stop stop-color="#FF834F" offset=".805"/><stop stop-color="#FF844F" offset=".813"/><stop stop-color="#FF854F" offset=".82"/><stop stop-color="#FF854F" offset=".821"/><stop stop-color="#FF854F" offset=".828"/><stop stop-color="#FF864F" offset=".836"/><stop stop-color="#FF864F" offset=".844"/><stop stop-color="#FF874F" offset=".852"/><stop stop-color="#FF874F" offset=".859"/><stop stop-color="#FF884F" offset=".867"/><stop stop-color="#FF884F" offset=".875"/><stop stop-color="#FF894E" offset=".883"/><stop stop-color="#FF894E" offset=".891"/><stop stop-color="#FF8A4E" offset=".898"/><stop stop-color="#FF8A4E" offset=".906"/><stop stop-color="#FF8B4E" offset=".914"/><stop stop-color="#FF8B4E" offset=".922"/><stop stop-color="#FF8C4E" offset=".93"/><stop stop-color="#FF8D4E" offset=".938"/><stop stop-color="#FF8D4E" offset=".945"/><stop stop-color="#FF8E4E" offset=".953"/><stop stop-color="#FF8E4E" offset=".961"/><stop stop-color="#FF8F4D" offset=".969"/><stop stop-color="#FF8F4D" offset=".977"/><stop stop-color="#FF904D" offset=".984"/><stop stop-color="#FF904D" offset=".992"/><stop stop-color="#FF914D" offset="1"/></linearGradient><linearGradient x1="20.831" gradientTransform="matrix(.98866 0 0 .99133 139.614 73.111)" xmlns:xlink="http://www.w3.org/1999/xlink" y1="16.442" x2="31.179" gradientUnits="userSpaceOnUse" y2="65.141" xlink:type="simple" xlink:actuate="onLoad" id="i" xlink:show="other"><stop stop-color="#FF5757" offset="0"/><stop stop-color="#FF5757" offset=".125"/><stop stop-color="#FF5757" offset=".148"/><stop stop-color="#FF5757" offset=".156"/><stop stop-color="#FF5757" offset=".172"/><stop stop-color="#FF5857" offset=".18"/><stop stop-color="#FF5857" offset=".188"/><stop stop-color="#FF5957" offset=".195"/><stop stop-color="#FF5957" offset=".203"/><stop stop-color="#FF5A56" offset=".211"/><stop stop-color="#FF5A56" offset=".219"/><stop stop-color="#FF5B56" offset=".227"/><stop stop-color="#FF5B56" offset=".234"/><stop stop-color="#FF5C56" offset=".242"/><stop stop-color="#FF5D56" offset=".25"/><stop stop-color="#FF5D56" offset=".258"/><stop stop-color="#FF5E56" offset=".266"/><stop stop-color="#FF5E56" offset=".273"/><stop stop-color="#FF5F56" offset=".281"/><stop stop-color="#FF5F56" offset=".289"/><stop stop-color="#FF6055" offset=".297"/><stop stop-color="#FF6055" offset=".305"/><stop stop-color="#FF6155" offset=".313"/><stop stop-color="#FF6155" offset=".32"/><stop stop-color="#FF6255" offset=".328"/><stop stop-color="#FF6255" offset=".336"/><stop stop-color="#FF6355" offset=".344"/><stop stop-color="#FF6355" offset=".352"/><stop stop-color="#FF6455" offset=".359"/><stop stop-color="#FF6455" offset=".367"/><stop stop-color="#FF6555" offset=".375"/><stop stop-color="#FF6654" offset=".383"/><stop stop-color="#FF6654" offset=".391"/><stop stop-color="#FF6754" offset=".398"/><stop stop-color="#FF6754" offset=".406"/><stop stop-color="#FF6854" offset=".414"/><stop stop-color="#FF6854" offset=".422"/><stop stop-color="#FF6954" offset=".43"/><stop stop-color="#FF6954" offset=".438"/><stop stop-color="#FF6A54" offset=".445"/><stop stop-color="#FF6A54" offset=".453"/><stop stop-color="#FF6B54" offset=".461"/><stop stop-color="#FF6B53" offset=".469"/><stop stop-color="#FF6C53" offset=".477"/><stop stop-color="#FF6C53" offset=".484"/><stop stop-color="#FF6D53" offset=".492"/><stop stop-color="#FF6D53" offset=".5"/><stop stop-color="#FF6E53" offset=".508"/><stop stop-color="#FF6E53" offset=".516"/><stop stop-color="#FF6F53" offset=".523"/><stop stop-color="#FF7053" offset=".531"/><stop stop-color="#FF7053" offset=".539"/><stop stop-color="#FF7153" offset=".547"/><stop stop-color="#FF7152" offset=".555"/><stop stop-color="#FF7252" offset=".563"/><stop stop-color="#FF7252" offset=".57"/><stop stop-color="#FF7352" offset=".578"/><stop stop-color="#FF7352" offset=".586"/><stop stop-color="#FF7452" offset=".594"/><stop stop-color="#FF7452" offset=".602"/><stop stop-color="#FF7552" offset=".609"/><stop stop-color="#FF7552" offset=".617"/><stop stop-color="#FF7652" offset=".625"/><stop stop-color="#FF7652" offset=".633"/><stop stop-color="#FF7751" offset=".641"/><stop stop-color="#FF7751" offset=".648"/><stop stop-color="#FF7851" offset=".656"/><stop stop-color="#FF7851" offset=".664"/><stop stop-color="#FF7951" offset=".672"/><stop stop-color="#FF7A51" offset=".68"/><stop stop-color="#FF7A51" offset=".688"/><stop stop-color="#FF7B51" offset=".695"/><stop stop-color="#FF7B51" offset=".703"/><stop stop-color="#FF7C51" offset=".711"/><stop stop-color="#FF7C51" offset=".719"/><stop stop-color="#FF7D50" offset=".727"/><stop stop-color="#FF7D50" offset=".734"/><stop stop-color="#FF7E50" offset=".742"/><stop stop-color="#FF7E50" offset=".75"/><stop stop-color="#FF7F50" offset=".758"/><stop stop-color="#FF7F50" offset=".766"/><stop stop-color="#FF8050" offset=".773"/><stop stop-color="#FF8050" offset=".781"/><stop stop-color="#FF8150" offset=".789"/><stop stop-color="#FF8150" offset=".797"/><stop stop-color="#FF8250" offset=".805"/><stop stop-color="#FF8250" offset=".813"/><stop stop-color="#FF834F" offset=".82"/><stop stop-color="#FF844F" offset=".828"/><stop stop-color="#FF844F" offset=".836"/><stop stop-color="#FF854F" offset=".844"/><stop stop-color="#FF854F" offset=".852"/><stop stop-color="#FF864F" offset=".852"/><stop stop-color="#FF864F" offset=".859"/><stop stop-color="#FF864F" offset=".867"/><stop stop-color="#FF874F" offset=".875"/><stop stop-color="#FF874F" offset=".883"/><stop stop-color="#FF884F" offset=".891"/><stop stop-color="#FF884F" offset=".898"/><stop stop-color="#FF894E" offset=".906"/><stop stop-color="#FF894E" offset=".914"/><stop stop-color="#FF8A4E" offset=".922"/><stop stop-color="#FF8A4E" offset=".93"/><stop stop-color="#FF8B4E" offset=".938"/><stop stop-color="#FF8B4E" offset=".945"/><stop stop-color="#FF8C4E" offset=".953"/><stop stop-color="#FF8C4E" offset=".961"/><stop stop-color="#FF8D4E" offset=".969"/><stop stop-color="#FF8E4E" offset=".977"/><stop stop-color="#FF8E4E" offset=".984"/><stop stop-color="#FF8F4D" offset=".992"/><stop stop-color="#FF8F4D" offset="1"/></linearGradient><linearGradient x1="48.168" gradientTransform="matrix(.98866 0 0 .99133 139.614 73.111)" xmlns:xlink="http://www.w3.org/1999/xlink" y1="-.94" x2="50.697" gradientUnits="userSpaceOnUse" y2="36.815" xlink:type="simple" xlink:actuate="onLoad" id="l" xlink:show="other"><stop stop-color="#FF5757" offset="0"/><stop stop-color="#FF5757" offset=".051"/><stop stop-color="#FF5757" offset=".125"/><stop stop-color="#FF5757" offset=".156"/><stop stop-color="#FF5857" offset=".172"/><stop stop-color="#FF5957" offset=".188"/><stop stop-color="#FF5A56" offset=".203"/><stop stop-color="#FF5B56" offset=".219"/><stop stop-color="#FF5C56" offset=".234"/><stop stop-color="#FF5D56" offset=".25"/><stop stop-color="#FF5E56" offset=".266"/><stop stop-color="#FF5E56" offset=".281"/><stop stop-color="#FF5F56" offset=".297"/><stop stop-color="#FF6055" offset=".313"/><stop stop-color="#FF6155" offset=".328"/><stop stop-color="#FF6255" offset=".344"/><stop stop-color="#FF6355" offset=".359"/><stop stop-color="#FF6455" offset=".375"/><stop stop-color="#FF6555" offset=".391"/><stop stop-color="#FF6654" offset=".406"/><stop stop-color="#FF6754" offset=".422"/><stop stop-color="#FF6854" offset=".438"/><stop stop-color="#FF6954" offset=".453"/><stop stop-color="#FF6A54" offset=".469"/><stop stop-color="#FF6B54" offset=".484"/><stop stop-color="#FF6C53" offset=".5"/><stop stop-color="#FF6D53" offset=".516"/><stop stop-color="#FF6E53" offset=".531"/><stop stop-color="#FF6F53" offset=".547"/><stop stop-color="#FF7053" offset=".563"/><stop stop-color="#FF7153" offset=".578"/><stop stop-color="#FF7252" offset=".594"/><stop stop-color="#FF7352" offset=".609"/><stop stop-color="#FF7452" offset=".625"/><stop stop-color="#FF7552" offset=".641"/><stop stop-color="#FF7652" offset=".656"/><stop stop-color="#FF7752" offset=".672"/><stop stop-color="#FF7751" offset=".688"/><stop stop-color="#FF7851" offset=".703"/><stop stop-color="#FF7951" offset=".719"/><stop stop-color="#FF7A51" offset=".734"/><stop stop-color="#FF7B51" offset=".75"/><stop stop-color="#FF7C51" offset=".766"/><stop stop-color="#FF7D50" offset=".781"/><stop stop-color="#FF7E50" offset=".797"/><stop stop-color="#FF7F50" offset=".813"/><stop stop-color="#FF8050" offset=".828"/><stop stop-color="#FF8150" offset=".844"/><stop stop-color="#FF8250" offset=".859"/><stop stop-color="#FF834F" offset=".875"/><stop stop-color="#FF844F" offset=".891"/><stop stop-color="#FF854F" offset=".906"/><stop stop-color="#FF864F" offset=".922"/><stop stop-color="#FF874F" offset=".938"/><stop stop-color="#FF884F" offset=".949"/><stop stop-color="#FF884F" offset=".953"/><stop stop-color="#FF894E" offset=".969"/><stop stop-color="#FF8A4E" offset=".984"/><stop stop-color="#FF8B4E" offset="1"/></linearGradient></defs><g fill="#38B6FF"><g><g><path d="M 16.613281 -19.890625 C 16.613281 -20.179688 16.527344 -20.296875 16.207031 -20.296875 L 3.390625 -20.296875 C 3.101562 -20.296875 2.988281 -20.179688 2.988281 -19.890625 L 2.988281 -0.40625 C 2.988281 -0.0859375 3.074219 0 3.390625 0 L 4.496094 0 C 4.785156 0 4.871094 -0.117188 4.871094 -0.40625 L 4.871094 -9.421875 L 15.976562 -9.421875 C 16.265625 -9.421875 16.382812 -9.539062 16.382812 -9.828125 L 16.382812 -10.699219 C 16.382812 -10.988281 16.265625 -11.074219 15.976562 -11.074219 L 4.871094 -11.074219 L 4.871094 -18.613281 L 16.207031 -18.613281 C 16.5 -18.613281 16.613281 -18.730469 16.613281 -19.019531 Z M 16.613281 -19.890625" transform="translate(78.277 262.121)"/></g></g></g><g fill="#38B6FF"><g><g><path d="M 15.164062 0 C 15.484375 0 15.570312 -0.117188 15.570312 -0.40625 L 15.570312 -1.277344 C 15.570312 -1.566406 15.484375 -1.652344 15.164062 -1.652344 L 4.871094 -1.652344 L 4.871094 -19.890625 C 4.871094 -20.210938 4.785156 -20.296875 4.464844 -20.296875 L 3.390625 -20.296875 C 3.074219 -20.296875 2.988281 -20.210938 2.988281 -19.890625 L 2.988281 -0.40625 C 2.988281 -0.0859375 3.074219 0 3.390625 0 Z M 15.164062 0" transform="translate(97.673 262.121)"/></g></g></g><g fill="#38B6FF"><g><g><path d="M 2.144531 0 C 2.40625 0 2.523438 -0.0859375 2.667969 -0.40625 L 5.046875 -5.652344 L 15.484375 -5.652344 L 17.859375 -0.40625 C 18.035156 -0.0859375 18.121094 0 18.382812 0 L 19.714844 0 C 19.976562 0 20.09375 -0.175781 19.976562 -0.40625 L 10.613281 -20.46875 C 10.523438 -20.671875 10.4375 -20.820312 10.320312 -20.820312 L 10.234375 -20.820312 C 10.089844 -20.820312 10.003906 -20.671875 9.917969 -20.46875 L 0.550781 -0.40625 C 0.464844 -0.175781 0.550781 0 0.78125 0 Z M 10.292969 -17.484375 L 14.84375 -7.308594 L 5.683594 -7.308594 L 10.265625 -17.484375 Z M 10.292969 -17.484375" transform="translate(115.504 262.121)"/></g></g></g><g fill="#38B6FF"><g><g><path d="M 18.382812 -20.296875 C 18.152344 -20.296875 18.035156 -20.210938 17.859375 -19.890625 L 10.292969 -3.132812 L 10.265625 -3.132812 L 2.667969 -19.890625 C 2.523438 -20.210938 2.40625 -20.296875 2.144531 -20.296875 L 0.78125 -20.296875 C 0.550781 -20.296875 0.464844 -20.121094 0.550781 -19.890625 L 9.917969 0.175781 C 10.0625 0.40625 10.089844 0.523438 10.234375 0.523438 L 10.320312 0.523438 C 10.4375 0.523438 10.496094 0.40625 10.613281 0.175781 L 19.976562 -19.890625 C 20.066406 -20.09375 20.007812 -20.296875 19.714844 -20.296875 Z M 18.382812 -20.296875" transform="translate(137.248 262.121)"/></g></g></g><g fill="#38B6FF"><g><g><path d="M 11.859375 -20.671875 C 6.148438 -20.671875 1.480469 -15.917969 1.480469 -10.148438 C 1.480469 -4.378906 6.148438 0.375 11.859375 0.375 C 17.570312 0.375 22.238281 -4.378906 22.238281 -10.148438 C 22.238281 -15.917969 17.570312 -20.671875 11.859375 -20.671875 Z M 3.390625 -10.148438 C 3.390625 -14.730469 7.160156 -18.992188 11.859375 -18.992188 C 16.585938 -18.992188 20.324219 -14.730469 20.324219 -10.148438 C 20.324219 -5.597656 16.585938 -1.304688 11.859375 -1.304688 C 7.160156 -1.304688 3.390625 -5.597656 3.390625 -10.148438 Z M 3.390625 -10.148438" transform="translate(158.992 262.121)"/></g></g></g><g fill="#38B6FF"><g><g><path d="M 16.992188 -20.296875 C 16.671875 -20.296875 16.585938 -20.210938 16.585938 -19.890625 L 16.585938 -8.496094 C 16.585938 -3.390625 13.945312 -1.304688 10.351562 -1.304688 C 6.753906 -1.304688 4.117188 -3.390625 4.117188 -8.496094 L 4.117188 -19.890625 C 4.117188 -20.210938 4.03125 -20.296875 3.742188 -20.296875 L 2.636719 -20.296875 C 2.347656 -20.296875 2.234375 -20.210938 2.234375 -19.890625 L 2.234375 -8.351562 C 2.234375 -2.582031 5.625 0.375 10.351562 0.375 C 15.078125 0.375 18.46875 -2.582031 18.46875 -8.351562 L 18.46875 -19.890625 C 18.46875 -20.210938 18.410156 -20.296875 18.09375 -20.296875 Z M 16.992188 -20.296875" transform="translate(184.013 262.121)"/></g></g></g><g fill="#38B6FF"><g><g><path d="M 17.859375 0 C 18.179688 0 18.382812 -0.144531 18.179688 -0.464844 L 12.613281 -8.148438 C 15.394531 -8.871094 17.253906 -10.726562 17.253906 -14.207031 C 17.253906 -18.90625 13.570312 -20.296875 10.265625 -20.296875 L 3.390625 -20.296875 C 3.101562 -20.296875 2.988281 -20.210938 2.988281 -19.890625 L 2.988281 -0.40625 C 2.988281 -0.0585938 3.101562 0 3.390625 0 L 4.464844 0 C 4.753906 0 4.871094 -0.0585938 4.871094 -0.40625 L 4.871094 -7.914062 L 10.640625 -7.914062 L 16.09375 -0.40625 C 16.265625 -0.144531 16.46875 0 16.757812 0 Z M 10.121094 -18.644531 C 13.25 -18.644531 15.394531 -17.339844 15.394531 -14.207031 C 15.394531 -11.367188 13.773438 -9.566406 10.121094 -9.566406 L 4.871094 -9.566406 L 4.871094 -18.644531 Z M 10.121094 -18.644531" transform="translate(206.047 262.121)"/></g></g></g><g fill="#38B6FF"><g><g><path d="M 16.46875 -17.832031 C 16.585938 -18.09375 16.613281 -18.238281 16.351562 -18.410156 C 14.148438 -19.746094 12.179688 -20.617188 9.191406 -20.617188 C 3.566406 -20.617188 1.941406 -16.789062 1.941406 -14.640625 C 1.941406 -10.875 5.683594 -9.945312 8.84375 -9.511719 C 12.816406 -8.929688 15.046875 -8.089844 15.046875 -5.566406 C 15.046875 -2.261719 12.003906 -1.363281 9.25 -1.363281 C 7.015625 -1.363281 4.523438 -2.085938 2.667969 -3.363281 C 2.550781 -3.449219 2.464844 -3.480469 2.378906 -3.480469 C 2.261719 -3.480469 2.203125 -3.390625 2.085938 -3.246094 L 1.625 -2.492188 C 1.480469 -2.203125 1.480469 -2.085938 1.738281 -1.914062 C 3.972656 -0.375 6.496094 0.320312 9.539062 0.320312 C 14.554688 0.320312 16.902344 -2.550781 16.902344 -5.625 C 16.902344 -9.394531 13.773438 -10.554688 10.003906 -11.074219 C 6.726562 -11.511719 3.796875 -12.148438 3.796875 -14.699219 C 3.796875 -16.238281 4.84375 -18.933594 9.480469 -18.933594 C 11.597656 -18.933594 13.597656 -18.179688 15.453125 -16.933594 C 15.570312 -16.875 15.628906 -16.847656 15.714844 -16.847656 C 15.859375 -16.847656 15.945312 -16.933594 16.035156 -17.105469 Z M 16.46875 -17.832031" transform="translate(226.748 262.121)"/></g></g></g><g fill="#38B6FF"><g><g><path d="M 7.191406 -19.890625 C 7.191406 -20.179688 7.132812 -20.296875 6.785156 -20.296875 L 6.089844 -20.296875 C 5.800781 -20.296875 5.597656 -20.152344 5.277344 -19.976562 L 1.101562 -17.570312 C 0.929688 -17.453125 0.898438 -17.339844 0.898438 -17.164062 L 0.898438 -16.441406 C 0.898438 -16.238281 0.984375 -16.121094 1.128906 -16.121094 C 1.1875 -16.121094 1.21875 -16.148438 1.277344 -16.148438 L 5.304688 -17.976562 L 5.304688 -0.40625 C 5.304688 -0.0859375 5.394531 0 5.710938 0 L 6.785156 0 C 7.105469 0 7.191406 -0.0859375 7.191406 -0.40625 Z M 7.191406 -19.890625" transform="translate(255.19 262.121)"/></g></g></g><g fill="#38B6FF"><g><g><path d="M 9.421875 -20.671875 C 3.914062 -20.671875 1.449219 -15.917969 1.449219 -10.148438 C 1.449219 -4.378906 3.914062 0.375 9.421875 0.375 C 14.933594 0.375 17.398438 -4.378906 17.398438 -10.148438 C 17.398438 -15.917969 14.933594 -20.671875 9.421875 -20.671875 Z M 3.335938 -10.148438 C 3.335938 -14.46875 4.871094 -18.992188 9.421875 -18.992188 C 13.976562 -18.992188 15.484375 -14.46875 15.484375 -10.148438 C 15.484375 -5.800781 13.976562 -1.304688 9.421875 -1.304688 C 4.871094 -1.304688 3.335938 -5.800781 3.335938 -10.148438 Z M 3.335938 -10.148438" transform="translate(267.077 262.121)"/></g></g></g><g fill="#38B6FF"><g><g><path d="M 7.191406 -19.890625 C 7.191406 -20.179688 7.132812 -20.296875 6.785156 -20.296875 L 6.089844 -20.296875 C 5.800781 -20.296875 5.597656 -20.152344 5.277344 -19.976562 L 1.101562 -17.570312 C 0.929688 -17.453125 0.898438 -17.339844 0.898438 -17.164062 L 0.898438 -16.441406 C 0.898438 -16.238281 0.984375 -16.121094 1.128906 -16.121094 C 1.1875 -16.121094 1.21875 -16.148438 1.277344 -16.148438 L 5.304688 -17.976562 L 5.304688 -0.40625 C 5.304688 -0.0859375 5.394531 0 5.710938 0 L 6.785156 0 C 7.105469 0 7.191406 -0.0859375 7.191406 -0.40625 Z M 7.191406 -19.890625" transform="translate(287.227 262.121)"/></g></g></g><g fill="#38B6FF"><g><g><path d="M 68.84375 -17.84375 C 69.070312 -17.789062 69.25 -17.691406 69.375 -17.546875 C 69.507812 -17.410156 69.539062 -17.273438 69.46875 -17.140625 C 69.382812 -17.023438 69.289062 -16.953125 69.1875 -16.921875 C 69.082031 -16.890625 68.96875 -16.882812 68.84375 -16.90625 C 68.695312 -16.90625 68.539062 -16.914062 68.375 -16.9375 C 66.132812 -17 63.160156 -16.867188 59.453125 -16.546875 C 55.742188 -16.222656 52.757812 -15.90625 50.5 -15.59375 C 48.75 -15.363281 47 -15.117188 45.25 -14.859375 C 45.21875 -14.859375 45.164062 -14.84375 45.09375 -14.8125 C 44.375 -14.707031 43.710938 -14.4375 43.109375 -14 C 40.890625 -12.488281 38.59375 -11.117188 36.21875 -9.890625 C 33.851562 -8.671875 31.4375 -7.53125 28.96875 -6.46875 C 24.976562 -4.707031 20.894531 -3.171875 16.71875 -1.859375 C 15.875 -1.628906 15.253906 -1.109375 14.859375 -0.296875 C 13.003906 3.390625 11.070312 7 9.0625 10.53125 C 7.28125 13.675781 5.566406 16.859375 3.921875 20.078125 C 3.921875 20.097656 3.910156 20.117188 3.890625 20.140625 C 3.828125 20.304688 3.742188 20.441406 3.640625 20.546875 C 3.472656 20.691406 3.273438 20.742188 3.046875 20.703125 C 2.921875 20.742188 2.796875 20.742188 2.671875 20.703125 C 2.421875 20.597656 2.296875 20.410156 2.296875 20.140625 C 2.328125 19.679688 2.472656 19.253906 2.734375 18.859375 C 2.753906 18.835938 2.765625 18.816406 2.765625 18.796875 C 4.421875 15.804688 6.050781 12.816406 7.65625 9.828125 C 9.269531 6.847656 10.828125 3.828125 12.328125 0.765625 C 12.453125 0.503906 12.578125 0.242188 12.703125 -0.015625 C 12.742188 -0.148438 12.796875 -0.285156 12.859375 -0.421875 C 12.710938 -0.460938 12.582031 -0.5 12.46875 -0.53125 C 12.226562 -0.476562 11.992188 -0.410156 11.765625 -0.328125 C 11.679688 -0.304688 11.601562 -0.273438 11.53125 -0.234375 C 8.625 0.585938 5.679688 1.296875 2.703125 1.890625 C 0.648438 2.253906 -1.414062 2.507812 -3.5 2.65625 C -3.601562 2.675781 -3.695312 2.6875 -3.78125 2.6875 C -3.988281 2.707031 -4.195312 2.71875 -4.40625 2.71875 C -5.207031 2.71875 -5.984375 2.59375 -6.734375 2.34375 C -7.316406 2.144531 -7.660156 1.816406 -7.765625 1.359375 C -7.878906 0.910156 -7.742188 0.429688 -7.359375 -0.078125 C -6.835938 -0.679688 -6.222656 -1.179688 -5.515625 -1.578125 C -3.910156 -2.578125 -2.226562 -3.394531 -0.46875 -4.03125 C 4.238281 -5.820312 9.015625 -7.390625 13.859375 -8.734375 C 14.128906 -8.816406 14.410156 -8.894531 14.703125 -8.96875 C 15.328125 -9.082031 15.90625 -9.257812 16.4375 -9.5 C 16.976562 -9.75 17.382812 -10.171875 17.65625 -10.765625 C 18.675781 -13.109375 19.65625 -15.457031 20.59375 -17.8125 C 21.539062 -20.175781 22.421875 -22.570312 23.234375 -25 C 23.234375 -25.019531 23.242188 -25.050781 23.265625 -25.09375 C 23.390625 -25.53125 23.554688 -25.945312 23.765625 -26.34375 C 23.847656 -26.46875 23.957031 -26.554688 24.09375 -26.609375 C 24.226562 -26.660156 24.367188 -26.675781 24.515625 -26.65625 C 24.617188 -26.675781 24.726562 -26.675781 24.84375 -26.65625 C 25.15625 -26.570312 25.335938 -26.363281 25.390625 -26.03125 C 25.390625 -25.382812 25.269531 -24.757812 25.03125 -24.15625 C 25.03125 -24.132812 25.019531 -24.109375 25 -24.078125 C 23.988281 -20.960938 22.847656 -17.894531 21.578125 -14.875 C 21.242188 -14.050781 20.90625 -13.234375 20.5625 -12.421875 C 20.425781 -12.128906 20.296875 -11.828125 20.171875 -11.515625 C 20.015625 -11.140625 19.945312 -10.882812 19.96875 -10.75 C 20 -10.613281 20.097656 -10.550781 20.265625 -10.5625 C 20.429688 -10.570312 20.632812 -10.617188 20.875 -10.703125 C 20.945312 -10.722656 21.023438 -10.742188 21.109375 -10.765625 C 22.023438 -10.992188 22.941406 -11.222656 23.859375 -11.453125 C 25.523438 -11.867188 27.195312 -12.285156 28.875 -12.703125 C 32.988281 -13.671875 37.132812 -14.5 41.3125 -15.1875 C 42.050781 -15.3125 42.703125 -15.601562 43.265625 -16.0625 C 44.453125 -16.957031 45.625 -18.007812 46.78125 -19.21875 C 47.945312 -20.4375 48.910156 -21.742188 49.671875 -23.140625 C 50.429688 -24.546875 50.769531 -25.988281 50.6875 -27.46875 C 50.613281 -28.945312 49.9375 -30.410156 48.65625 -31.859375 C 47.820312 -32.722656 46.878906 -33.453125 45.828125 -34.046875 C 43.597656 -35.242188 40.921875 -36.125 37.796875 -36.6875 C 34.671875 -37.25 31.320312 -37.546875 27.75 -37.578125 C 24.175781 -37.609375 20.597656 -37.425781 17.015625 -37.03125 C 13.429688 -36.632812 10.078125 -36.082031 6.953125 -35.375 C 3.828125 -34.675781 1.144531 -33.878906 -1.09375 -32.984375 C -3.03125 -32.210938 -4.867188 -31.265625 -6.609375 -30.140625 C -7.316406 -29.710938 -7.984375 -29.238281 -8.609375 -28.71875 C -9.234375 -28.195312 -9.789062 -27.601562 -10.28125 -26.9375 C -10.46875 -26.644531 -10.71875 -26.488281 -11.03125 -26.46875 C -11.09375 -26.46875 -11.164062 -26.46875 -11.25 -26.46875 C -11.269531 -26.46875 -11.289062 -26.46875 -11.3125 -26.46875 C -11.4375 -26.46875 -11.554688 -26.484375 -11.671875 -26.515625 C -11.785156 -26.546875 -11.875 -26.613281 -11.9375 -26.71875 C -11.976562 -26.800781 -12 -26.882812 -12 -26.96875 C -12 -27.0625 -11.988281 -27.144531 -11.96875 -27.21875 C -11.800781 -27.59375 -11.582031 -27.921875 -11.3125 -28.203125 C -11.039062 -28.492188 -10.765625 -28.78125 -10.484375 -29.0625 C -9.722656 -29.695312 -8.929688 -30.273438 -8.109375 -30.796875 C -7.296875 -31.316406 -6.460938 -31.800781 -5.609375 -32.25 C -3.410156 -33.425781 -0.597656 -34.476562 2.828125 -35.40625 C 6.253906 -36.34375 10.019531 -37.097656 14.125 -37.671875 C 18.226562 -38.242188 22.359375 -38.554688 26.515625 -38.609375 C 30.679688 -38.660156 34.582031 -38.382812 38.21875 -37.78125 C 41.851562 -37.175781 44.945312 -36.164062 47.5 -34.75 C 48.644531 -34.125 49.671875 -33.328125 50.578125 -32.359375 C 51.847656 -30.921875 52.570312 -29.5 52.75 -28.09375 C 52.925781 -26.695312 52.734375 -25.335938 52.171875 -24.015625 C 51.609375 -22.703125 50.832031 -21.445312 49.84375 -20.25 C 48.863281 -19.0625 47.851562 -17.945312 46.8125 -16.90625 C 46.6875 -16.800781 46.5625 -16.671875 46.4375 -16.515625 C 46.320312 -16.359375 46.269531 -16.226562 46.28125 -16.125 C 46.300781 -16.019531 46.457031 -15.988281 46.75 -16.03125 C 50.238281 -16.59375 53.71875 -17.019531 57.1875 -17.3125 C 60.65625 -17.601562 64.144531 -17.800781 67.65625 -17.90625 C 67.757812 -17.90625 67.851562 -17.90625 67.9375 -17.90625 L 67.96875 -17.90625 C 68.257812 -17.90625 68.550781 -17.882812 68.84375 -17.84375 Z M 14.015625 -2.734375 C 14.085938 -2.921875 14.226562 -3.191406 14.4375 -3.546875 C 14.726562 -4.097656 15.035156 -4.710938 15.359375 -5.390625 C 15.679688 -6.066406 15.914062 -6.660156 16.0625 -7.171875 C 16.207031 -7.679688 16.132812 -7.957031 15.84375 -8 C 15.664062 -7.96875 15.492188 -7.925781 15.328125 -7.875 C 15.285156 -7.875 15.234375 -7.863281 15.171875 -7.84375 C 14.503906 -7.632812 13.835938 -7.4375 13.171875 -7.25 C 11.578125 -6.789062 9.976562 -6.300781 8.375 -5.78125 C 8.289062 -5.757812 8.207031 -5.726562 8.125 -5.6875 C 5.257812 -4.8125 2.429688 -3.800781 -0.359375 -2.65625 C -1.765625 -2.082031 -3.097656 -1.378906 -4.359375 -0.546875 C -4.835938 -0.273438 -5.234375 0.0820312 -5.546875 0.53125 C -5.671875 0.726562 -5.707031 0.898438 -5.65625 1.046875 C -5.601562 1.203125 -5.472656 1.328125 -5.265625 1.421875 C -4.828125 1.554688 -4.382812 1.625 -3.9375 1.625 C -3.539062 1.625 -3.144531 1.609375 -2.75 1.578125 C -2.726562 1.578125 -2.71875 1.578125 -2.71875 1.578125 C -0.65625 1.367188 1.367188 1.03125 3.359375 0.5625 C 6.515625 -0.132812 9.640625 -0.953125 12.734375 -1.890625 C 12.773438 -1.910156 12.804688 -1.921875 12.828125 -1.921875 C 13.078125 -1.984375 13.304688 -2.066406 13.515625 -2.171875 C 13.722656 -2.285156 13.890625 -2.472656 14.015625 -2.734375 Z M 16.671875 -3.28125 C 18.535156 -3.757812 21.078125 -4.65625 24.296875 -5.96875 C 27.515625 -7.289062 30.609375 -8.6875 33.578125 -10.15625 C 36.546875 -11.625 38.570312 -12.835938 39.65625 -13.796875 C 39.507812 -13.796875 39.382812 -13.796875 39.28125 -13.796875 C 39.226562 -13.796875 39.195312 -13.796875 39.1875 -13.796875 C 32.65625 -12.503906 26.195312 -10.960938 19.8125 -9.171875 C 19.238281 -9.015625 18.851562 -8.675781 18.65625 -8.15625 C 18.257812 -7.320312 17.875 -6.5 17.5 -5.6875 C 17.207031 -5.082031 16.914062 -4.472656 16.625 -3.859375 C 16.582031 -3.765625 16.554688 -3.664062 16.546875 -3.5625 C 16.546875 -3.457031 16.585938 -3.363281 16.671875 -3.28125 Z M 16.671875 -3.28125" transform="translate(136.982 318.125)"/></g></g></g><g fill="#38B6FF"><g><g><path d="M 6.796875 -8.6875 C 6.710938 -8.039062 6.40625 -7.617188 5.875 -7.421875 C 5.34375 -7.222656 5.171875 -7.484375 5.359375 -8.203125 C 5.546875 -8.921875 5.222656 -9.101562 4.390625 -8.75 C 3.554688 -8.394531 2.875 -7.945312 2.34375 -7.40625 C 1.507812 -6.550781 0.769531 -5.632812 0.125 -4.65625 C 0.0625 -4.570312 0.0078125 -4.503906 -0.03125 -4.453125 C -0.21875 -4.171875 -0.40625 -3.910156 -0.59375 -3.671875 C -0.71875 -3.492188 -0.863281 -3.382812 -1.03125 -3.34375 C -1.195312 -3.300781 -1.363281 -3.296875 -1.53125 -3.328125 C -1.6875 -3.347656 -1.804688 -3.410156 -1.890625 -3.515625 C -1.984375 -3.617188 -1.992188 -3.738281 -1.921875 -3.875 C -1.816406 -4.132812 -1.695312 -4.394531 -1.5625 -4.65625 C -0.707031 -6.238281 0.15625 -7.820312 1.03125 -9.40625 C 1.050781 -9.425781 1.0625 -9.441406 1.0625 -9.453125 C 1.1875 -9.703125 1.332031 -9.929688 1.5 -10.140625 C 1.6875 -10.347656 1.898438 -10.429688 2.140625 -10.390625 C 2.390625 -10.359375 2.554688 -10.210938 2.640625 -9.953125 C 2.742188 -9.617188 2.832031 -9.429688 2.90625 -9.390625 C 2.988281 -9.347656 3.160156 -9.378906 3.421875 -9.484375 C 3.992188 -9.691406 4.546875 -9.835938 5.078125 -9.921875 C 5.617188 -10.003906 6.0625 -9.984375 6.40625 -9.859375 C 6.75 -9.734375 6.878906 -9.34375 6.796875 -8.6875 Z M 6.796875 -8.6875" transform="translate(176.676 318.125)"/></g></g></g><g fill="#38B6FF"><g><g><path d="M 8.0625 -5.4375 C 7.519531 -4.894531 6.882812 -4.429688 6.15625 -4.046875 C 5.425781 -3.671875 4.816406 -3.421875 4.328125 -3.296875 C 3.835938 -3.179688 3.332031 -3.113281 2.8125 -3.09375 C 1.988281 -3.0625 1.226562 -3.175781 0.53125 -3.4375 C -0.613281 -3.90625 -1.015625 -4.789062 -0.671875 -6.09375 C -0.335938 -7.21875 0.332031 -8.09375 1.34375 -8.71875 C 2.351562 -9.351562 3.394531 -9.660156 4.46875 -9.640625 C 4.46875 -9.640625 4.476562 -9.640625 4.5 -9.640625 C 4.769531 -9.660156 5.03125 -9.644531 5.28125 -9.59375 C 5.695312 -9.4375 5.960938 -9.1875 6.078125 -8.84375 C 6.191406 -8.507812 6.113281 -8.132812 5.84375 -7.71875 C 5.238281 -6.800781 4.421875 -6.289062 3.390625 -6.1875 C 2.691406 -6.125 2.023438 -6.15625 1.390625 -6.28125 C 1.265625 -6.300781 1.15625 -6.269531 1.0625 -6.1875 C 0.96875 -6.101562 0.910156 -6 0.890625 -5.875 C 0.703125 -5.0625 0.953125 -4.539062 1.640625 -4.3125 C 2.492188 -4.019531 3.378906 -4.019531 4.296875 -4.3125 C 5.347656 -4.644531 6.347656 -5.269531 7.296875 -6.1875 C 8.253906 -7.101562 8.804688 -7.53125 8.953125 -7.46875 C 9.097656 -7.40625 9.144531 -7.226562 9.09375 -6.9375 C 8.957031 -6.476562 8.613281 -5.976562 8.0625 -5.4375 Z M 2.046875 -7.71875 C 1.984375 -7.65625 1.941406 -7.582031 1.921875 -7.5 C 1.898438 -7.414062 1.929688 -7.34375 2.015625 -7.28125 C 2.335938 -7.09375 2.691406 -7.023438 3.078125 -7.078125 C 3.472656 -7.128906 3.800781 -7.273438 4.0625 -7.515625 C 4.332031 -7.753906 4.453125 -8.046875 4.421875 -8.390625 C 4.390625 -8.515625 4.320312 -8.59375 4.21875 -8.625 C 4.113281 -8.664062 4.007812 -8.675781 3.90625 -8.65625 C 3.207031 -8.53125 2.585938 -8.21875 2.046875 -7.71875 Z M 2.046875 -7.71875" transform="translate(183.754 318.125)"/></g></g></g><g fill="#38B6FF"><g><g><path d="M 14.796875 -7.09375 C 15.128906 -7.300781 15.390625 -7.351562 15.578125 -7.25 C 15.765625 -7.144531 15.691406 -6.851562 15.359375 -6.375 C 14.941406 -5.8125 14.195312 -5.210938 13.125 -4.578125 C 12.0625 -3.953125 11.117188 -3.675781 10.296875 -3.75 C 9.472656 -3.832031 9.234375 -4.441406 9.578125 -5.578125 C 9.921875 -6.710938 10.109375 -7.347656 10.140625 -7.484375 C 10.171875 -7.617188 10.144531 -7.695312 10.0625 -7.71875 C 9.976562 -7.738281 9.789062 -7.644531 9.5 -7.4375 C 8.65625 -6.851562 7.828125 -6.238281 7.015625 -5.59375 C 6.660156 -5.332031 6.3125 -5.054688 5.96875 -4.765625 C 5.769531 -4.566406 5.554688 -4.375 5.328125 -4.1875 C 5.328125 -4.1875 5.316406 -4.175781 5.296875 -4.15625 C 5.046875 -3.914062 4.742188 -3.753906 4.390625 -3.671875 C 4.234375 -3.617188 4.0625 -3.597656 3.875 -3.609375 C 3.695312 -3.628906 3.546875 -3.703125 3.421875 -3.828125 C 3.285156 -3.960938 3.234375 -4.109375 3.265625 -4.265625 C 3.304688 -4.421875 3.425781 -4.65625 3.625 -4.96875 C 3.820312 -5.28125 4.039062 -5.625 4.28125 -6 C 4.519531 -6.375 4.65625 -6.601562 4.6875 -6.6875 C 4.71875 -6.769531 4.703125 -6.851562 4.640625 -6.9375 C 4.578125 -7.019531 4.503906 -7.046875 4.421875 -7.015625 C 4.347656 -6.984375 4.050781 -6.78125 3.53125 -6.40625 C 3.007812 -6.03125 2.300781 -5.507812 1.40625 -4.84375 C 0.988281 -4.53125 0.582031 -4.207031 0.1875 -3.875 C 0.0820312 -3.769531 -0.03125 -3.675781 -0.15625 -3.59375 C -0.445312 -3.351562 -0.769531 -3.222656 -1.125 -3.203125 C -1.375 -3.179688 -1.5625 -3.234375 -1.6875 -3.359375 C -1.8125 -3.492188 -1.828125 -3.675781 -1.734375 -3.90625 C -1.679688 -4.070312 -1.613281 -4.226562 -1.53125 -4.375 C -1.476562 -4.4375 -1.445312 -4.503906 -1.4375 -4.578125 C -0.6875 -6.085938 0.0507812 -7.601562 0.78125 -9.125 C 0.800781 -9.15625 0.816406 -9.207031 0.828125 -9.28125 C 0.921875 -9.4375 1.007812 -9.59375 1.09375 -9.75 C 1.320312 -9.988281 1.585938 -10.066406 1.890625 -9.984375 C 2.253906 -9.878906 2.394531 -9.671875 2.3125 -9.359375 C 2.132812 -8.890625 1.96875 -8.421875 1.8125 -7.953125 C 1.726562 -7.742188 1.644531 -7.535156 1.5625 -7.328125 C 1.414062 -6.960938 1.367188 -6.726562 1.421875 -6.625 C 1.472656 -6.519531 1.707031 -6.59375 2.125 -6.84375 C 2.40625 -7.03125 2.679688 -7.21875 2.953125 -7.40625 C 3.285156 -7.632812 3.609375 -7.84375 3.921875 -8.03125 C 4.398438 -8.320312 4.890625 -8.570312 5.390625 -8.78125 C 5.640625 -8.882812 5.894531 -8.960938 6.15625 -9.015625 C 6.414062 -9.066406 6.65625 -9.007812 6.875 -8.84375 C 7.050781 -8.695312 7.125 -8.53125 7.09375 -8.34375 C 7.070312 -8.164062 7.023438 -8 6.953125 -7.84375 C 6.816406 -7.53125 6.757812 -7.332031 6.78125 -7.25 C 6.8125 -7.164062 6.882812 -7.148438 7 -7.203125 C 7.125 -7.253906 7.34375 -7.375 7.65625 -7.5625 C 7.96875 -7.75 8.304688 -7.957031 8.671875 -8.1875 C 9.117188 -8.476562 9.59375 -8.753906 10.09375 -9.015625 C 10.507812 -9.296875 10.953125 -9.460938 11.421875 -9.515625 C 12.078125 -9.566406 12.34375 -9.304688 12.21875 -8.734375 C 12.101562 -8.160156 11.875 -7.476562 11.53125 -6.6875 C 11.195312 -5.90625 11.164062 -5.421875 11.4375 -5.234375 C 11.707031 -5.054688 12.300781 -5.300781 13.21875 -5.96875 C 14.144531 -6.632812 14.671875 -7.007812 14.796875 -7.09375 Z M 14.796875 -7.09375" transform="translate(191.993 318.125)"/></g></g></g><g fill="#38B6FF"><g><g><path d="M 5.625 -5.96875 C 5.125 -5.363281 4.523438 -4.8125 3.828125 -4.3125 C 3.140625 -3.8125 2.363281 -3.472656 1.5 -3.296875 C 0.632812 -3.128906 -0.0351562 -3.195312 -0.515625 -3.5 C -1.003906 -3.800781 -1.101562 -4.472656 -0.8125 -5.515625 C -0.425781 -6.585938 0.09375 -7.609375 0.75 -8.578125 C 0.90625 -8.785156 1.125 -8.929688 1.40625 -9.015625 C 1.613281 -9.066406 1.796875 -9.03125 1.953125 -8.90625 C 2.109375 -8.789062 2.164062 -8.644531 2.125 -8.46875 C 1.976562 -8.125 1.820312 -7.78125 1.65625 -7.4375 C 1.488281 -7.101562 1.375 -6.882812 1.3125 -6.78125 C 0.988281 -6.175781 0.757812 -5.546875 0.625 -4.890625 C 0.625 -4.503906 1.128906 -4.476562 2.140625 -4.8125 C 3.148438 -5.144531 4.128906 -5.75 5.078125 -6.625 C 6.035156 -7.507812 6.492188 -7.769531 6.453125 -7.40625 C 6.410156 -7.050781 6.132812 -6.570312 5.625 -5.96875 Z M 3.15625 -10.703125 C 3.113281 -10.671875 3.015625 -10.628906 2.859375 -10.578125 C 2.710938 -10.523438 2.554688 -10.484375 2.390625 -10.453125 C 2.234375 -10.429688 2.109375 -10.457031 2.015625 -10.53125 C 1.921875 -10.613281 1.914062 -10.765625 2 -10.984375 C 2.144531 -11.378906 2.300781 -11.722656 2.46875 -12.015625 C 2.632812 -12.316406 2.847656 -12.648438 3.109375 -13.015625 C 3.285156 -13.171875 3.472656 -13.253906 3.671875 -13.265625 C 3.867188 -13.285156 4.03125 -13.234375 4.15625 -13.109375 C 4.289062 -12.992188 4.332031 -12.832031 4.28125 -12.625 C 4.070312 -11.882812 3.695312 -11.242188 3.15625 -10.703125 Z M 3.15625 -10.703125" transform="translate(206.97 318.125)"/></g></g></g><g fill="#38B6FF"><g><g><path d="M 0.359375 -2.5 C -0.535156 -2.5 -0.984375 -2.96875 -0.984375 -3.90625 C -0.984375 -5.050781 -0.242188 -7.066406 1.234375 -9.953125 C 1.285156 -10.078125 1.390625 -10.140625 1.546875 -10.140625 C 2.140625 -10.140625 2.4375 -9.90625 2.4375 -9.4375 C 2.4375 -9.257812 2.382812 -9.050781 2.28125 -8.8125 C 2.238281 -8.738281 1.742188 -7.488281 0.796875 -5.0625 C 0.640625 -4.664062 0.5625 -4.375 0.5625 -4.1875 C 0.5625 -3.976562 0.65625 -3.875 0.84375 -3.875 C 1.539062 -3.875 3.347656 -5.585938 6.265625 -9.015625 C 6.648438 -9.484375 7.023438 -9.71875 7.390625 -9.71875 C 7.929688 -9.71875 8.203125 -9.519531 8.203125 -9.125 C 8.203125 -8.96875 8.035156 -8.394531 7.703125 -7.40625 C 7.253906 -6.050781 7.03125 -5.269531 7.03125 -5.0625 C 7.03125 -4.757812 7.128906 -4.609375 7.328125 -4.609375 C 7.847656 -4.609375 9.363281 -5.53125 11.875 -7.375 C 12.019531 -7.5 12.144531 -7.5625 12.25 -7.5625 C 12.488281 -7.5625 12.609375 -7.363281 12.609375 -6.96875 C 12.609375 -6.863281 12.570312 -6.78125 12.5 -6.71875 C 11.164062 -5.570312 10.035156 -4.703125 9.109375 -4.109375 C 8.253906 -3.554688 7.5 -3.28125 6.84375 -3.28125 L 6.640625 -3.28125 C 5.671875 -3.488281 5.1875 -4.25 5.1875 -5.5625 C 4.144531 -4.644531 3.28125 -3.90625 2.59375 -3.34375 C 1.914062 -2.78125 1.171875 -2.5 0.359375 -2.5 Z M 0.359375 -2.5" transform="translate(212.492 318.125)"/></g></g></g><g fill="#38B6FF"><g><g><path d="M 14.796875 -7.09375 C 15.128906 -7.300781 15.390625 -7.351562 15.578125 -7.25 C 15.765625 -7.144531 15.691406 -6.851562 15.359375 -6.375 C 14.941406 -5.8125 14.195312 -5.210938 13.125 -4.578125 C 12.0625 -3.953125 11.117188 -3.675781 10.296875 -3.75 C 9.472656 -3.832031 9.234375 -4.441406 9.578125 -5.578125 C 9.921875 -6.710938 10.109375 -7.347656 10.140625 -7.484375 C 10.171875 -7.617188 10.144531 -7.695312 10.0625 -7.71875 C 9.976562 -7.738281 9.789062 -7.644531 9.5 -7.4375 C 8.65625 -6.851562 7.828125 -6.238281 7.015625 -5.59375 C 6.660156 -5.332031 6.3125 -5.054688 5.96875 -4.765625 C 5.769531 -4.566406 5.554688 -4.375 5.328125 -4.1875 C 5.328125 -4.1875 5.316406 -4.175781 5.296875 -4.15625 C 5.046875 -3.914062 4.742188 -3.753906 4.390625 -3.671875 C 4.234375 -3.617188 4.0625 -3.597656 3.875 -3.609375 C 3.695312 -3.628906 3.546875 -3.703125 3.421875 -3.828125 C 3.285156 -3.960938 3.234375 -4.109375 3.265625 -4.265625 C 3.304688 -4.421875 3.425781 -4.65625 3.625 -4.96875 C 3.820312 -5.28125 4.039062 -5.625 4.28125 -6 C 4.519531 -6.375 4.65625 -6.601562 4.6875 -6.6875 C 4.71875 -6.769531 4.703125 -6.851562 4.640625 -6.9375 C 4.578125 -7.019531 4.503906 -7.046875 4.421875 -7.015625 C 4.347656 -6.984375 4.050781 -6.78125 3.53125 -6.40625 C 3.007812 -6.03125 2.300781 -5.507812 1.40625 -4.84375 C 0.988281 -4.53125 0.582031 -4.207031 0.1875 -3.875 C 0.0820312 -3.769531 -0.03125 -3.675781 -0.15625 -3.59375 C -0.445312 -3.351562 -0.769531 -3.222656 -1.125 -3.203125 C -1.375 -3.179688 -1.5625 -3.234375 -1.6875 -3.359375 C -1.8125 -3.492188 -1.828125 -3.675781 -1.734375 -3.90625 C -1.679688 -4.070312 -1.613281 -4.226562 -1.53125 -4.375 C -1.476562 -4.4375 -1.445312 -4.503906 -1.4375 -4.578125 C -0.6875 -6.085938 0.0507812 -7.601562 0.78125 -9.125 C 0.800781 -9.15625 0.816406 -9.207031 0.828125 -9.28125 C 0.921875 -9.4375 1.007812 -9.59375 1.09375 -9.75 C 1.320312 -9.988281 1.585938 -10.066406 1.890625 -9.984375 C 2.253906 -9.878906 2.394531 -9.671875 2.3125 -9.359375 C 2.132812 -8.890625 1.96875 -8.421875 1.8125 -7.953125 C 1.726562 -7.742188 1.644531 -7.535156 1.5625 -7.328125 C 1.414062 -6.960938 1.367188 -6.726562 1.421875 -6.625 C 1.472656 -6.519531 1.707031 -6.59375 2.125 -6.84375 C 2.40625 -7.03125 2.679688 -7.21875 2.953125 -7.40625 C 3.285156 -7.632812 3.609375 -7.84375 3.921875 -8.03125 C 4.398438 -8.320312 4.890625 -8.570312 5.390625 -8.78125 C 5.640625 -8.882812 5.894531 -8.960938 6.15625 -9.015625 C 6.414062 -9.066406 6.65625 -9.007812 6.875 -8.84375 C 7.050781 -8.695312 7.125 -8.53125 7.09375 -8.34375 C 7.070312 -8.164062 7.023438 -8 6.953125 -7.84375 C 6.816406 -7.53125 6.757812 -7.332031 6.78125 -7.25 C 6.8125 -7.164062 6.882812 -7.148438 7 -7.203125 C 7.125 -7.253906 7.34375 -7.375 7.65625 -7.5625 C 7.96875 -7.75 8.304688 -7.957031 8.671875 -8.1875 C 9.117188 -8.476562 9.59375 -8.753906 10.09375 -9.015625 C 10.507812 -9.296875 10.953125 -9.460938 11.421875 -9.515625 C 12.078125 -9.566406 12.34375 -9.304688 12.21875 -8.734375 C 12.101562 -8.160156 11.875 -7.476562 11.53125 -6.6875 C 11.195312 -5.90625 11.164062 -5.421875 11.4375 -5.234375 C 11.707031 -5.054688 12.300781 -5.300781 13.21875 -5.96875 C 14.144531 -6.632812 14.671875 -7.007812 14.796875 -7.09375 Z M 14.796875 -7.09375" transform="translate(224.128 318.125)"/></g></g></g><g clip-path="url(#a)"><g clip-path="url(#b)"><path fill="url(#c)" d="M 139.617188 143.554688 L 139.617188 232.109375 L 235.335938 232.109375 L 235.335938 143.554688 Z M 139.617188 143.554688"/></g></g><g clip-path="url(#d)"><g clip-path="url(#e)"><path fill="url(#f)" d="M 181.613281 97.199219 L 181.613281 146.46875 L 222.136719 146.46875 L 222.136719 97.199219 Z M 181.613281 97.199219"/></g></g><g clip-path="url(#g)"><g clip-path="url(#h)"><path fill="url(#i)" d="M 149.28125 91.738281 L 149.28125 134.742188 L 184.261719 134.742188 L 184.261719 91.738281 Z M 149.28125 91.738281"/></g></g><g clip-path="url(#j)"><g clip-path="url(#k)"><path fill="url(#l)" d="M 173.367188 73.109375 L 173.367188 108.78125 L 202.066406 108.78125 L 202.066406 73.109375 Z M 173.367188 73.109375"/></g></g></svg>